:version 1.10
:name ASF
:units
  mass 1
  length 1
  angle deg
:documentation
  ASF file generated by Kaydara
:root
  axis xyz
  order  tx ty tz rx ry rz
  position 0 0 0
  orientation 0 0 0
:bonedata
  begin
    id 1
    name RightUpLegDummy
    direction -0.718183 -0.695806 0.00816078
    length 4.904
    axis 0 0 0 xyz
  end
  begin
    id 2
    name RightUpLeg
    direction 3.53373e-006 -0.995788 0.0916898
    length 17.4976
    axis -3.49089 -0.000906625 0.000286804 xyz
    dof rx ry rz
  end
  begin
    id 3
    name RightLeg
    direction 0.00371092 -0.995096 -0.0988419
    length 16.5821
    axis 3.68512 0.0193738 -0.131023 xyz
    dof rx ry rz
  end
  begin
    id 4
    name RightFoot
    direction 0.00079151 -0.46099 0.887405
    length 3.77069
    axis 4.81691e-005 -0.120479 -0.188788 xyz
    dof rx ry rz
  end
  begin
    id 5
    name RightToes
    direction 0 0 0
    length 0
    axis 0 0 0 xyz
    dof rx ry rz
  end
  begin
    id 6
    name SpineDummy
    direction 8.3039e-015 1 4.57515e-016
    length 4.6813
    axis 0 0 0 xyz
  end
  begin
    id 7
    name Spine
    direction -3.15643e-008 0.999988 0.00495137
    length 10.1015
    axis -0.001389 0.000121418 2.40972e-006 xyz
    dof rx ry rz
  end
  begin
    id 8
    name Spine1
    direction 0 0 0
    length 0
    axis -0.001389 0.000121451 1.30017e-006 xyz
    dof rx ry rz
  end
  begin
    id 9
    name HEadDummy
    direction -1.99912e-008 0.999999 0.00127422
    length 3.43865
    axis -0.001389 0.000121451 1.30017e-006 xyz
  end
  begin
    id 10
    name HEad
    direction 0 0 0
    length 0
    axis 0 0 0 xyz
    dof rx ry rz
  end
  begin
    id 11
    name LeftShoulder1Dummy
    direction 0.998891 -0.0402509 -0.0244456
    length 3.5433
    axis -0.001389 0.000121451 1.30017e-006 xyz
  end
  begin
    id 12
    name LeftShoulder1
    direction 0.99951 -0.000327763 0.0313091
    length 4.05031
    axis -0.001389 0.000121451 1.30017e-006 xyz
    dof rx ry rz
  end
  begin
    id 13
    name LeftArm
    direction 0.998561 -0.00100056 -0.0536182
    length 10.3537
    axis -23.1894 0.134784 0.967509 xyz
    dof rx ry rz
  end
  begin
    id 14
    name LeftForeArm
    direction 0.998903 0.00866432 0.046012
    length 8.70632
    axis -9.91835 -0.06569 -0.177794 xyz
    dof rx ry rz
  end
  begin
    id 15
    name LeftHand
    direction 0 0 0
    length 0
    axis 0 0 0 xyz
    dof rx ry rz
  end
  begin
    id 16
    name RightShoulderDummy
    direction -0.998891 -0.0402509 -0.0244414
    length 3.5433
    axis -0.001389 0.000121451 1.30017e-006 xyz
  end
  begin
    id 17
    name RightShoulder
    direction -0.99951 -0.000327807 0.0313133
    length 4.05031
    axis 0.215806 0.000203643 -0.0068026 xyz
    dof rx ry rz
  end
  begin
    id 18
    name RightArm
    direction -0.998573 -0.000999564 -0.053403
    length 10.3947
    axis -23.2009 -0.134239 -0.964101 xyz
    dof rx ry rz
  end
  begin
    id 19
    name RightForeArm
    direction -0.998898 0.00868028 0.0461306
    length 8.68355
    axis -9.92322 0.0658061 0.178868 xyz
    dof rx ry rz
  end
  begin
    id 20
    name RightHand
    direction 0 0 0
    length 0
    axis 0 0 0 xyz
    dof rx ry rz
  end
  begin
    id 21
    name LeftUpLegDummy
    direction 0.718183 -0.695806 0.00816078
    length 4.904
    axis 0 0 0 xyz
  end
  begin
    id 22
    name LeftUpLeg
    direction -6.81752e-006 -0.995793 0.0916337
    length 17.4976
    axis -3.48766 0.00143442 -0.000524262 xyz
    dof rx ry rz
  end
  begin
    id 23
    name LeftLeg
    direction -0.00601358 -0.995091 -0.0987824
    length 16.5821
    axis 3.68178 -0.00654042 -0.000285133 xyz
    dof rx ry rz
  end
  begin
    id 24
    name LeftFoot
    direction -0.00417578 -0.460984 0.887399
    length 3.77069
    axis 1.87233e-006 4.66016e-005 -8.6538e-006 xyz
    dof rx ry rz
  end
  begin
    id 25
    name LeftToes
    direction 0 0 0
    length 0
    axis 0 0 0 xyz
    dof rx ry rz
  end
:hierarchy
  begin
    root RightUpLegDummy SpineDummy LeftUpLegDummy
    RightUpLegDummy RightUpLeg
    RightUpLeg RightLeg
    RightLeg RightFoot
    RightFoot RightToes
    SpineDummy Spine
    Spine Spine1
    Spine1 HEadDummy LeftShoulder1Dummy RightShoulderDummy
    HEadDummy HEad
    LeftShoulder1Dummy LeftShoulder1
    LeftShoulder1 LeftArm
    LeftArm LeftForeArm
    LeftForeArm LeftHand
    RightShoulderDummy RightShoulder
    RightShoulder RightArm
    RightArm RightForeArm
    RightForeArm RightHand
    LeftUpLegDummy LeftUpLeg
    LeftUpLeg LeftLeg
    LeftLeg LeftFoot
    LeftFoot LeftToes
  end

:SAMPLES-PER-SECOND 30
:FULLY-SPECIFIED
:DEGREES
83
root  25.6102 39.5227 1.46723 174.356 -86.7398 179.173
RightUpLeg  1.16256 -9.62604 1.11636
RightLeg  19.4823 -3.65333 2.20307
RightFoot  -14.186 -0.238325 -5.7562
RightToes  0.000481922 0.542163 -0.142578
Spine  7.19518 0.812665 12.3507
Spine1  8.77105 3.51262 -4.65259
HEad  -6.0383 -2.61684 -1.31221
LeftShoulder1  10.1376 -14.0391 -50.4481
LeftArm  -5.06453 20.3129 -23.7172
LeftForeArm  37.7744 -11.4628 -5.74156
LeftHand  -0.25398 0.0180481 5.50724
RightShoulder  5.62698 9.53912 37.13
RightArm  13.741 14.9304 38.3544
RightForeArm  0.546798 26.6343 5.6981
RightHand  -1.73473 5.77458 -18.2795
LeftUpLeg  -21.6236 1.42031 1.22569
LeftLeg  54.8891 4.1399 6.80508
LeftFoot  -0.655435 0.038584 -0.378644
LeftToes  1.06245e-005 4.65869e-005 -8.65513e-006
84
root  24.2275 39.5073 1.45588 -179.303 -85.6537 172.693
RightUpLeg  4.09435 -9.5785 0.00166028
RightLeg  18.6355 -2.47973 2.50602
RightFoot  -15.8499 -0.318249 -5.35693
RightToes  0.000481922 0.542163 -0.142578
Spine  7.19164 1.19176 12.3907
Spine1  8.99266 4.0532 -5.85638
HEad  -6.32817 -2.47848 -1.31648
LeftShoulder1  10.1664 -14.0639 -50.5193
LeftArm  -6.07281 22.0308 -22.8456
LeftForeArm  39.7486 -8.25774 -5.83889
LeftHand  -0.25398 0.0180481 5.50724
RightShoulder  5.56556 9.59092 36.5081
RightArm  12.724 18.2927 38.897
RightForeArm  0.996197 29.1847 6.2844
RightHand  -1.73162 5.54522 -18.6098
LeftUpLeg  -22.42 0.864321 1.05894
LeftLeg  44.8222 3.74708 4.4072
LeftFoot  -0.687565 0.121951 -1.25914
LeftToes  1.06245e-005 4.65869e-005 -8.65513e-006
85
root  22.8188 39.4636 1.43536 -178.234 -84.9342 171.832
RightUpLeg  6.7644 -9.55 -0.806979
RightLeg  17.5872 -1.49971 2.83026
RightFoot  -16.9938 -0.365679 -5.06975
RightToes  0.000481922 0.542163 -0.142578
Spine  6.61284 1.49712 12.4309
Spine1  9.4732 4.40355 -6.86943
HEad  -6.63713 -2.2414 -1.41863
LeftShoulder1  10.1898 -14.0964 -50.5422
LeftArm  -5.32445 24.0871 -22.1769
LeftForeArm  41.1919 -6.85905 -5.83889
LeftHand  -0.25398 0.0180481 5.50724
RightShoulder  5.46792 9.546 35.9208
RightArm  11.3433 20.7393 39.4167
RightForeArm  1.7714 31.5246 6.83024
RightHand  -1.69061 5.29511 -18.5878
LeftUpLeg  -22.213 0.857515 0.916971
LeftLeg  32.3293 2.02139 1.79929
LeftFoot  0.379586 0.145865 -1.44736
LeftToes  1.06245e-005 4.65869e-005 -8.65513e-006
86
root  21.3873 39.4147 1.40416 -176.366 -84.3425 170.191
RightUpLeg  9.65796 -9.59791 -1.81704
RightLeg  16.1365 -0.436311 3.15289
RightFoot  -17.8208 -0.384179 -4.66397
RightToes  0.000481922 0.542163 -0.142578
Spine  5.99943 1.81577 11.8424
Spine1  9.97235 4.69301 -7.5276
HEad  -6.97594 -1.96523 -1.47234
LeftShoulder1  10.1817 -14.1125 -50.457
LeftArm  -4.47936 26.6924 -21.767
LeftForeArm  42.2875 -7.20847 -5.95418
LeftHand  -0.25398 0.0180481 5.50724
RightShoulder  5.36154 9.41253 35.5393
RightArm  9.91108 22.0724 39.6944
RightForeArm  2.63908 33.7995 7.38526
RightHand  -1.65552 5.16468 -18.4303
LeftUpLeg  -21.0526 2.41683 0.21932
LeftLeg  18.7841 -0.131319 0.12478
LeftFoot  1.31875 0.206818 -1.92941
LeftToes  1.06245e-005 4.65869e-005 -8.65513e-006
87
root  19.8908 39.2813 1.38505 -173.488 -83.8515 167.381
RightUpLeg  12.6989 -10.0054 -3.27683
RightLeg  15.0887 1.02347 3.4762
RightFoot  -19.0291 -0.36624 -3.55041
RightToes  0.000481922 0.542163 -0.142578
Spine  5.56384 2.04109 10.6774
Spine1  10.3827 4.87572 -7.69392
HEad  -7.20156 -1.65795 -1.45392
LeftShoulder1  10.1058 -14.0339 -50.3066
LeftArm  -3.90021 29.6248 -21.6271
LeftForeArm  42.0491 -8.79856 -5.97293
LeftHand  -0.25398 0.0180481 5.50724
RightShoulder  5.32364 9.34666 35.4586
RightArm  8.55888 22.2381 39.6568
RightForeArm  3.38616 35.9747 7.95216
RightHand  -1.66902 5.15803 -18.5851
LeftUpLeg  -19.4811 3.93285 -0.263116
LeftLeg  7.16112 2.24129 -1.45291
LeftFoot  1.81383 0.378815 -3.38389
LeftToes  1.06245e-005 4.65869e-005 -8.65513e-006
88
root  18.2955 39.0551 1.41545 -173.056 -83.5382 167.047
RightUpLeg  15.3844 -10.8232 -4.76275
RightLeg  15.0921 2.94722 3.74891
RightFoot  -20.1516 -0.295432 -2.05638
RightToes  0.000481922 0.542163 -0.142578
Spine  4.98887 2.12444 9.94695
Spine1  10.71 4.97078 -7.8385
HEad  -7.23559 -1.41555 -1.39736
LeftShoulder1  9.95029 -13.8361 -50.0981
LeftArm  -3.32935 32.3255 -21.7093
LeftForeArm  40.348 -10.7528 -5.76209
LeftHand  -0.25398 0.0180481 5.50724
RightShoulder  5.35874 9.3669 35.6619
RightArm  7.37194 21.2331 39.4321
RightForeArm  3.92909 37.7803 8.45492
RightHand  -1.72032 5.24707 -18.9838
LeftUpLeg  -18.34 1.80129 0.78891
LeftLeg  0.675932 12.3428 -4.56519
LeftFoot  2.00145 0.418 -3.6647
LeftToes  1.06245e-005 4.65869e-005 -8.65513e-006
89
root  16.5934 38.7938 1.48935 -174.232 -83.2492 168.445
RightUpLeg  17.515 -11.8183 -6.1558
RightLeg  16.2233 5.17564 3.77062
RightFoot  -20.587 -0.197261 -0.717735
RightToes  0.000481922 0.542163 -0.142578
Spine  4.17235 2.22078 9.76673
Spine1  11.0016 5.17597 -8.18648
HEad  -7.23266 -1.33851 -1.33846
LeftShoulder1  9.75101 -13.5735 -49.8506
LeftArm  -2.99095 34.3276 -21.9095
LeftForeArm  38.552 -12.256 -5.4443
LeftHand  -0.25398 0.0180481 5.50724
RightShoulder  5.43474 9.38061 36.1954
RightArm  6.43456 19.0588 38.935
RightForeArm  4.29987 39.038 8.82228
RightHand  -1.74859 5.32491 -19.1515
LeftUpLeg  -18.4487 2.78834 -0.0535904
LeftLeg  1.09691 18.0459 -5.38094
LeftFoot  2.93233 0.174063 -1.57744
LeftToes  1.06245e-005 4.65869e-005 -8.65513e-006
90
root  14.7948 38.523 1.56476 -172.618 -82.73 166.819
RightUpLeg  19.5073 -12.5547 -8.0736
RightLeg  18.2562 7.5683 3.62794
RightFoot  -20.6363 -0.0151056 1.48191
RightToes  0.000481922 0.542163 -0.142578
Spine  3.4447 2.54268 8.8568
Spine1  11.1764 5.45221 -8.05089
HEad  -7.26087 -1.30655 -1.34086
LeftShoulder1  9.57584 -13.3023 -49.7449
LeftArm  -3.24362 35.3603 -22.0819
LeftForeArm  37.6827 -12.7072 -5.25717
LeftHand  -0.25398 0.0180481 5.50724
RightShoulder  5.59035 9.42819 37.2121
RightArm  5.85879 15.8609 37.9282
RightForeArm  4.58856 39.4446 8.93119
RightHand  -1.74542 5.34748 -19.081
LeftUpLeg  -19.4169 6.22338 -2.79293
LeftLeg  6.63046 16.4402 -2.78802
LeftFoot  5.48154 -0.411249 2.50334
LeftToes  1.06245e-005 4.65869e-005 -8.65513e-006
91
root  12.9684 38.3037 1.61889 -165.671 -82.1335 159.39
RightUpLeg  21.0795 -12.031 -10.5924
RightLeg  21.5517 9.05978 3.77666
RightFoot  -19.6925 0.289978 5.89643
RightToes  0.000481922 0.542163 -0.142578
Spine  3.12323 2.89673 6.36676
Spine1  11.1289 5.4608 -7.04468
HEad  -7.08362 -1.0876 -1.47521
LeftShoulder1  9.48506 -13.0736 -49.9505
LeftArm  -4.19045 35.2081 -22.1262
LeftForeArm  37.7338 -11.7286 -5.29776
LeftHand  -0.25398 0.0180481 5.50724
RightShoulder  5.85396 9.59177 38.6305
RightArm  5.91011 12.0993 36.7588
RightForeArm  4.43286 37.896 8.46103
RightHand  -1.83634 5.72996 -19.3739
LeftUpLeg  -20.4724 12.0779 -7.40881
LeftLeg  13.322 8.57997 0.774505
LeftFoot  7.31191 -1.16329 6.85994
LeftToes  1.06245e-005 4.65869e-005 -8.65513e-006
92
root  11.2201 38.2675 1.68311 -156.815 -81.6207 149.927
RightUpLeg  20.4422 -9.56723 -12.4661
RightLeg  27.5691 8.12336 4.32509
RightFoot  -14.8034 0.214069 11.0615
RightToes  0.000481922 0.542163 -0.142578
Spine  3.14373 2.93141 3.47415
Spine1  10.7688 5.11797 -5.98295
HEad  -6.50818 -0.58343 -1.8062
LeftShoulder1  9.50154 -12.9743 -50.3345
LeftArm  -5.43634 33.8508 -22.1654
LeftForeArm  38.2419 -9.67739 -5.36116
LeftHand  -0.25398 0.0180481 5.50724
RightShoulder  6.10915 9.77346 39.8822
RightArm  7.27268 8.50275 36.4758
RightForeArm  2.6674 32.8139 7.02768
RightHand  -2.07937 6.78466 -20.0492
LeftUpLeg  -20.3621 14.0407 -10.2994
LeftLeg  18.4751 5.45264 2.58961
LeftFoot  5.76382 -1.40556 9.08706
LeftToes  1.06245e-005 4.65869e-005 -8.65513e-006
